<?xml version="1.0" standalone="no"?><!DOCTYPE svg PUBLIC "-//W3C//DTD SVG 1.1//EN" "http://www.w3.org/Graphics/SVG/1.1/DTD/svg11.dtd"><svg t="1708766986747" class="icon" viewBox="0 0 1024 1024" version="1.1" xmlns="http://www.w3.org/2000/svg" p-id="1783" xmlns:xlink="http://www.w3.org/1999/xlink" width="200" height="200"><path d="M669.17 497.86L532 635.03V340.69c0-11.05-8.95-20-20-20s-20 8.95-20 20v294.34L354.83 497.86c-7.81-7.81-20.47-7.81-28.28 0s-7.81 20.47 0 28.28l171.31 171.31 0.05 0.05c0.45 0.45 0.92 0.87 1.41 1.28 0.24 0.2 0.49 0.37 0.73 0.55 0.28 0.21 0.55 0.42 0.84 0.62 0.29 0.19 0.59 0.36 0.89 0.54 0.26 0.16 0.52 0.32 0.79 0.47 0.3 0.16 0.61 0.3 0.92 0.44 0.28 0.13 0.56 0.27 0.85 0.39 0.3 0.12 0.61 0.22 0.91 0.33 0.31 0.11 0.62 0.23 0.94 0.33 0.3 0.09 0.61 0.16 0.92 0.24 0.33 0.08 0.65 0.17 0.98 0.24 0.35 0.07 0.71 0.11 1.06 0.16 0.29 0.04 0.58 0.1 0.87 0.13 0.66 0.06 1.31 0.1 1.97 0.1 0.66 0 1.32-0.03 1.97-0.1 0.3-0.03 0.58-0.08 0.87-0.13 0.35-0.05 0.71-0.09 1.06-0.16 0.33-0.07 0.66-0.16 0.98-0.24 0.31-0.08 0.61-0.14 0.92-0.24 0.32-0.1 0.63-0.22 0.94-0.33 0.3-0.11 0.61-0.21 0.91-0.33 0.29-0.12 0.57-0.26 0.85-0.39 0.31-0.15 0.62-0.28 0.93-0.45 0.27-0.14 0.52-0.3 0.78-0.46 0.3-0.18 0.61-0.35 0.9-0.55 0.28-0.19 0.54-0.39 0.81-0.59 0.25-0.19 0.52-0.37 0.76-0.57 0.46-0.38 0.9-0.78 1.32-1.2 0.05-0.04 0.09-0.08 0.14-0.13l171.31-171.31c7.81-7.81 7.81-20.47 0-28.28-7.8-7.81-20.46-7.81-28.27 0z" fill="#333333" p-id="1784"></path><path d="M811.79 106.55H212.2c-58.26 0-105.66 47.4-105.66 105.66V811.8c0 58.26 47.4 105.66 105.66 105.66h599.59c58.26 0 105.66-47.4 105.66-105.66V212.2c0-58.25-47.4-105.65-105.66-105.65z m65.66 705.24c0 36.2-29.45 65.66-65.66 65.66H212.2c-36.2 0-65.66-29.45-65.66-65.66V212.2c0-36.2 29.45-65.66 65.66-65.66h599.59c36.2 0 65.66 29.45 65.66 65.66v599.59z" fill="#333333" p-id="1785"></path></svg>