<?xml version="1.0" standalone="no"?><!DOCTYPE svg PUBLIC "-//W3C//DTD SVG 1.1//EN" "http://www.w3.org/Graphics/SVG/1.1/DTD/svg11.dtd"><svg t="1708766980601" class="icon" viewBox="0 0 1024 1024" version="1.1" xmlns="http://www.w3.org/2000/svg" p-id="1637" xmlns:xlink="http://www.w3.org/1999/xlink" width="200" height="200"><path d="M896.45 464.82L559.16 127.54c-26-25.99-68.32-25.99-94.33 0.01L127.55 464.83c-25.67 25.69-25.98 67.28-0.95 93.36 0.29 0.33 0.59 0.66 0.91 0.97l337.31 337.26c12.58 12.61 29.32 19.56 47.13 19.57h0.04c17.82 0 34.57-6.94 47.18-19.55l337.28-337.29c25.99-26.01 25.99-68.32 0-94.33z m-28.29 66.05L530.88 868.15c-5.05 5.05-11.77 7.84-18.9 7.84h-0.02c-7.12 0-13.81-2.78-18.85-7.84L156.59 531.67c-0.24-0.27-0.49-0.53-0.75-0.79-10.41-10.41-10.41-27.36-0.01-37.77l337.28-337.27c10.41-10.41 27.36-10.41 37.77-0.01L868.16 493.1c10.4 10.42 10.4 27.36 0 37.77z" fill="#333333" p-id="1638"></path><path d="M677.34 523.94c0.21-0.28 0.43-0.56 0.62-0.85 0.19-0.29 0.36-0.58 0.53-0.87 0.16-0.27 0.33-0.53 0.48-0.8 0.16-0.3 0.29-0.6 0.44-0.9 0.14-0.29 0.28-0.57 0.4-0.87 0.12-0.29 0.22-0.59 0.32-0.89 0.11-0.32 0.24-0.63 0.34-0.96 0.09-0.29 0.15-0.59 0.23-0.89 0.08-0.34 0.18-0.67 0.25-1.01 0.07-0.34 0.11-0.68 0.16-1.03 0.04-0.3 0.1-0.6 0.13-0.91 0.06-0.63 0.09-1.25 0.1-1.88v-0.09-0.09c0-0.63-0.03-1.26-0.1-1.88-0.03-0.31-0.09-0.61-0.13-0.91-0.05-0.34-0.09-0.69-0.16-1.03-0.07-0.34-0.16-0.67-0.25-1.01-0.07-0.3-0.14-0.59-0.23-0.89-0.1-0.33-0.22-0.64-0.34-0.96-0.11-0.3-0.2-0.59-0.32-0.89-0.12-0.3-0.27-0.58-0.41-0.87-0.14-0.3-0.28-0.61-0.43-0.9-0.15-0.28-0.32-0.54-0.48-0.81-0.17-0.29-0.34-0.59-0.53-0.87-0.2-0.29-0.42-0.57-0.63-0.85-0.18-0.24-0.35-0.49-0.54-0.72-0.4-0.49-0.83-0.96-1.28-1.41l-0.05-0.05-149.32-149.34c-7.81-7.81-20.47-7.81-28.28 0-7.81 7.81-7.81 20.47 0 28.28l115.19 115.19H341.33c-11.05 0-20 8.95-20 20s8.95 20 20 20h271.71l-115.18 115.2c-7.81 7.81-7.81 20.47 0 28.29a19.92 19.92 0 0 0 14.14 5.86c5.12 0 10.24-1.95 14.14-5.86l149.33-149.33c0.01-0.01 0.02-0.03 0.04-0.04 0.45-0.45 0.88-0.93 1.29-1.43 0.19-0.24 0.36-0.49 0.54-0.73z" fill="#333333" p-id="1639"></path></svg>